<svg width="1600" height="900" viewBox="0 0 1600 900" xmlns="http://www.w3.org/2000/svg">
  <!-- 背景 IDEA暗色主题 -->
  <rect width="1600" height="900" fill="#181825"/>
  
  <defs>
    <linearGradient id="headerGrad" x1="0%" y1="0%" x2="100%" y2="0%">
      <stop offset="0%" style="stop-color:#667eea" />
      <stop offset="100%" style="stop-color:#764ba2" />
    </linearGradient>
    <filter id="glow">
      <feDropShadow dx="0" dy="4" stdDeviation="6" flood-opacity="0.3"/>
    </filter>
  </defs>
  
  <!-- 标题栏 -->
  <rect x="0" y="0" width="1600" height="100" fill="#1e1e2e"/>
  <rect x="0" y="0" width="1600" height="3" fill="url(#headerGrad)"/>
  
  <text x="800" y="45" font-family="JetBrains Mono" font-size="36" font-weight="bold" text-anchor="middle" fill="white">
    🎨 Winsurf Icon Theme
  </text>
  <text x="800" y="75" font-family="Arial" font-size="18" text-anchor="middle" fill="#a0a0a0">
    346 Beautiful Icons for JetBrains IDEs
  </text>
  
  <!-- 主内容区域 -->
  <g transform="translate(80, 140)">
    <!-- 编程语言行 -->
    <g>
      <text x="0" y="0" font-family="JetBrains Mono" font-size="14" fill="#60a5fa">LANGUAGES</text>
      <g transform="translate(0, 20)">
        <!-- JS -->
        <rect x="0" y="0" width="50" height="50" rx="6" fill="#2a2a3e"/>
        <rect x="10" y="10" width="30" height="30" rx="4" fill="#f7df1e"/>
        <text x="25" y="30" font-size="12" font-weight="bold" text-anchor="middle" fill="#000">JS</text>
        
        <!-- TS -->
        <rect x="60" y="0" width="50" height="50" rx="6" fill="#2a2a3e"/>
        <rect x="70" y="10" width="30" height="30" rx="4" fill="#3178c6"/>
        <text x="85" y="30" font-size="12" font-weight="bold" text-anchor="middle" fill="#fff">TS</text>
        
        <!-- Python -->
        <rect x="120" y="0" width="50" height="50" rx="6" fill="#2a2a3e"/>
        <rect x="130" y="10" width="30" height="30" rx="4" fill="#3776ab"/>
        <text x="145" y="30" font-size="12" font-weight="bold" text-anchor="middle" fill="#ffd43b">PY</text>
        
        <!-- Java -->
        <rect x="180" y="0" width="50" height="50" rx="6" fill="#2a2a3e"/>
        <rect x="190" y="10" width="30" height="30" rx="4" fill="#f89820"/>
        <text x="205" y="30" font-size="10" font-weight="bold" text-anchor="middle" fill="#fff">JAVA</text>
        
        <!-- Go -->
        <rect x="240" y="0" width="50" height="50" rx="6" fill="#2a2a3e"/>
        <rect x="250" y="10" width="30" height="30" rx="4" fill="#00add8"/>
        <text x="265" y="30" font-size="12" font-weight="bold" text-anchor="middle" fill="#fff">GO</text>
        
        <!-- Rust -->
        <rect x="300" y="0" width="50" height="50" rx="6" fill="#2a2a3e"/>
        <rect x="310" y="10" width="30" height="30" rx="4" fill="#ce422b"/>
        <text x="325" y="30" font-size="12" font-weight="bold" text-anchor="middle" fill="#fff">RS</text>
        
        <!-- C++ -->
        <rect x="360" y="0" width="50" height="50" rx="6" fill="#2a2a3e"/>
        <rect x="370" y="10" width="30" height="30" rx="4" fill="#00599c"/>
        <text x="385" y="30" font-size="11" font-weight="bold" text-anchor="middle" fill="#fff">C++</text>
        
        <!-- C# -->
        <rect x="420" y="0" width="50" height="50" rx="6" fill="#2a2a3e"/>
        <rect x="430" y="10" width="30" height="30" rx="4" fill="#239120"/>
        <text x="445" y="30" font-size="12" font-weight="bold" text-anchor="middle" fill="#fff">C#</text>
        
        <!-- Ruby -->
        <rect x="480" y="0" width="50" height="50" rx="6" fill="#2a2a3e"/>
        <rect x="490" y="10" width="30" height="30" rx="4" fill="#cc342d"/>
        <text x="505" y="30" font-size="12" font-weight="bold" text-anchor="middle" fill="#fff">RB</text>
        
        <!-- PHP -->
        <rect x="540" y="0" width="50" height="50" rx="6" fill="#2a2a3e"/>
        <rect x="550" y="10" width="30" height="30" rx="4" fill="#777bb4"/>
        <text x="565" y="30" font-size="11" font-weight="bold" text-anchor="middle" fill="#fff">PHP</text>
        
        <!-- Swift -->
        <rect x="600" y="0" width="50" height="50" rx="6" fill="#2a2a3e"/>
        <rect x="610" y="10" width="30" height="30" rx="4" fill="#fa7343"/>
        <text x="625" y="30" font-size="10" font-weight="bold" text-anchor="middle" fill="#fff">Swift</text>
        
        <!-- Kotlin -->
        <rect x="660" y="0" width="50" height="50" rx="6" fill="#2a2a3e"/>
        <rect x="670" y="10" width="30" height="30" rx="4" fill="#7f52ff"/>
        <text x="685" y="30" font-size="12" font-weight="bold" text-anchor="middle" fill="#fff">KT</text>
        
        <!-- Dart -->
        <rect x="720" y="0" width="50" height="50" rx="6" fill="#2a2a3e"/>
        <rect x="730" y="10" width="30" height="30" rx="4" fill="#0175c2"/>
        <text x="745" y="30" font-size="11" font-weight="bold" text-anchor="middle" fill="#fff">Dart</text>
        
        <!-- Lua -->
        <rect x="780" y="0" width="50" height="50" rx="6" fill="#2a2a3e"/>
        <rect x="790" y="10" width="30" height="30" rx="4" fill="#000080"/>
        <text x="805" y="30" font-size="11" font-weight="bold" text-anchor="middle" fill="#fff">Lua</text>
        
        <!-- Shell -->
        <rect x="840" y="0" width="50" height="50" rx="6" fill="#2a2a3e"/>
        <rect x="850" y="10" width="30" height="30" rx="4" fill="#4eaa25"/>
        <text x="865" y="30" font-size="11" font-weight="bold" text-anchor="middle" fill="#fff">SH</text>
        
        <!-- More indicator -->
        <text x="920" y="30" font-size="16" fill="#667eea">+25 more</text>
      </g>
    </g>
    
    <!-- 框架行 -->
    <g transform="translate(0, 100)">
      <text x="0" y="0" font-family="JetBrains Mono" font-size="14" fill="#f59e0b">FRAMEWORKS</text>
      <g transform="translate(0, 20)">
        <!-- React -->
        <rect x="0" y="0" width="50" height="50" rx="6" fill="#2a2a3e"/>
        <rect x="10" y="10" width="30" height="30" rx="4" fill="#61dafb"/>
        <text x="25" y="30" font-size="14" font-weight="bold" text-anchor="middle" fill="#000">⚛</text>
        
        <!-- Vue -->
        <rect x="60" y="0" width="50" height="50" rx="6" fill="#2a2a3e"/>
        <rect x="70" y="10" width="30" height="30" rx="4" fill="#4fc08d"/>
        <text x="85" y="30" font-size="11" font-weight="bold" text-anchor="middle" fill="#fff">Vue</text>
        
        <!-- Angular -->
        <rect x="120" y="0" width="50" height="50" rx="6" fill="#2a2a3e"/>
        <rect x="130" y="10" width="30" height="30" rx="4" fill="#dd0031"/>
        <text x="145" y="30" font-size="11" font-weight="bold" text-anchor="middle" fill="#fff">NG</text>
        
        <!-- Svelte -->
        <rect x="180" y="0" width="50" height="50" rx="6" fill="#2a2a3e"/>
        <rect x="190" y="10" width="30" height="30" rx="4" fill="#ff3e00"/>
        <text x="205" y="30" font-size="11" font-weight="bold" text-anchor="middle" fill="#fff">SV</text>
        
        <!-- Next -->
        <rect x="240" y="0" width="50" height="50" rx="6" fill="#2a2a3e"/>
        <rect x="250" y="10" width="30" height="30" rx="4" fill="#000"/>
        <text x="265" y="30" font-size="10" font-weight="bold" text-anchor="middle" fill="#fff">Next</text>
        
        <!-- Nuxt -->
        <rect x="300" y="0" width="50" height="50" rx="6" fill="#2a2a3e"/>
        <rect x="310" y="10" width="30" height="30" rx="4" fill="#00dc82"/>
        <text x="325" y="30" font-size="11" font-weight="bold" text-anchor="middle" fill="#000">Nuxt</text>
        
        <!-- Vite -->
        <rect x="360" y="0" width="50" height="50" rx="6" fill="#2a2a3e"/>
        <rect x="370" y="10" width="30" height="30" rx="4" fill="#646cff"/>
        <text x="385" y="30" font-size="11" font-weight="bold" text-anchor="middle" fill="#fff">Vite</text>
        
        <!-- Webpack -->
        <rect x="420" y="0" width="50" height="50" rx="6" fill="#2a2a3e"/>
        <rect x="430" y="10" width="30" height="30" rx="4" fill="#8dd6f9"/>
        <text x="445" y="30" font-size="10" font-weight="bold" text-anchor="middle" fill="#000">WP</text>
        
        <!-- Tailwind -->
        <rect x="480" y="0" width="50" height="50" rx="6" fill="#2a2a3e"/>
        <rect x="490" y="10" width="30" height="30" rx="4" fill="#06b6d4"/>
        <text x="505" y="30" font-size="10" font-weight="bold" text-anchor="middle" fill="#fff">TW</text>
        
        <!-- Node -->
        <rect x="540" y="0" width="50" height="50" rx="6" fill="#2a2a3e"/>
        <rect x="550" y="10" width="30" height="30" rx="4" fill="#68a063"/>
        <text x="565" y="30" font-size="11" font-weight="bold" text-anchor="middle" fill="#fff">Node</text>
        
        <!-- Deno -->
        <rect x="600" y="0" width="50" height="50" rx="6" fill="#2a2a3e"/>
        <rect x="610" y="10" width="30" height="30" rx="4" fill="#000"/>
        <text x="625" y="30" font-size="11" font-weight="bold" text-anchor="middle" fill="#fff">Deno</text>
        
        <!-- Bun -->
        <rect x="660" y="0" width="50" height="50" rx="6" fill="#2a2a3e"/>
        <rect x="670" y="10" width="30" height="30" rx="4" fill="#fbf0df"/>
        <text x="685" y="30" font-size="11" font-weight="bold" text-anchor="middle" fill="#000">Bun</text>
        
        <!-- More -->
        <text x="720" y="30" font-size="16" fill="#667eea">+30 more</text>
      </g>
    </g>
    
    <!-- 配置文件行 -->
    <g transform="translate(0, 200)">
      <text x="0" y="0" font-family="JetBrains Mono" font-size="14" fill="#10b981">CONFIG FILES</text>
      <g transform="translate(0, 20)">
        <!-- JSON -->
        <rect x="0" y="0" width="50" height="50" rx="6" fill="#2a2a3e"/>
        <rect x="10" y="10" width="30" height="30" rx="4" fill="#fbbf24"/>
        <text x="25" y="30" font-size="14" font-weight="bold" text-anchor="middle" fill="#000">{}</text>
        
        <!-- YAML -->
        <rect x="60" y="0" width="50" height="50" rx="6" fill="#2a2a3e"/>
        <rect x="70" y="10" width="30" height="30" rx="4" fill="#cb171e"/>
        <text x="85" y="30" font-size="10" font-weight="bold" text-anchor="middle" fill="#fff">YAML</text>
        
        <!-- XML -->
        <rect x="120" y="0" width="50" height="50" rx="6" fill="#2a2a3e"/>
        <rect x="130" y="10" width="30" height="30" rx="4" fill="#f60"/>
        <text x="145" y="30" font-size="10" font-weight="bold" text-anchor="middle" fill="#fff">XML</text>
        
        <!-- Docker -->
        <rect x="180" y="0" width="50" height="50" rx="6" fill="#2a2a3e"/>
        <rect x="190" y="10" width="30" height="30" rx="4" fill="#0db7ed"/>
        <text x="205" y="30" font-size="14" font-weight="bold" text-anchor="middle" fill="#fff">🐋</text>
        
        <!-- Git -->
        <rect x="240" y="0" width="50" height="50" rx="6" fill="#2a2a3e"/>
        <rect x="250" y="10" width="30" height="30" rx="4" fill="#f05032"/>
        <text x="265" y="30" font-size="11" font-weight="bold" text-anchor="middle" fill="#fff">Git</text>
        
        <!-- NPM -->
        <rect x="300" y="0" width="50" height="50" rx="6" fill="#2a2a3e"/>
        <rect x="310" y="10" width="30" height="30" rx="4" fill="#cb3837"/>
        <text x="325" y="30" font-size="10" font-weight="bold" text-anchor="middle" fill="#fff">NPM</text>
        
        <!-- ENV -->
        <rect x="360" y="0" width="50" height="50" rx="6" fill="#2a2a3e"/>
        <rect x="370" y="10" width="30" height="30" rx="4" fill="#ecd53f"/>
        <text x="385" y="30" font-size="10" font-weight="bold" text-anchor="middle" fill="#000">.env</text>
        
        <!-- Gradle -->
        <rect x="420" y="0" width="50" height="50" rx="6" fill="#2a2a3e"/>
        <rect x="430" y="10" width="30" height="30" rx="4" fill="#02303a"/>
        <text x="445" y="30" font-size="14" font-weight="bold" text-anchor="middle" fill="#019a8e">G</text>
        
        <!-- Maven -->
        <rect x="480" y="0" width="50" height="50" rx="6" fill="#2a2a3e"/>
        <rect x="490" y="10" width="30" height="30" rx="4" fill="#c71e3b"/>
        <text x="505" y="30" font-size="14" font-weight="bold" text-anchor="middle" fill="#fff">M</text>
        
        <!-- Prettier -->
        <rect x="540" y="0" width="50" height="50" rx="6" fill="#2a2a3e"/>
        <rect x="550" y="10" width="30" height="30" rx="4" fill="#f7b93e"/>
        <text x="565" y="30" font-size="14" font-weight="bold" text-anchor="middle" fill="#000">P</text>
        
        <!-- ESLint -->
        <rect x="600" y="0" width="50" height="50" rx="6" fill="#2a2a3e"/>
        <rect x="610" y="10" width="30" height="30" rx="4" fill="#4b32c3"/>
        <text x="625" y="30" font-size="10" font-weight="bold" text-anchor="middle" fill="#fff">ESL</text>
        
        <!-- More -->
        <text x="660" y="30" font-size="16" fill="#667eea">+50 more</text>
      </g>
    </g>
    
    <!-- 文件夹图标行 -->
    <g transform="translate(0, 300)">
      <text x="0" y="0" font-family="JetBrains Mono" font-size="14" fill="#e879f9">FOLDER ICONS</text>
      <g transform="translate(0, 20)">
        <!-- src folder -->
        <rect x="0" y="0" width="50" height="50" rx="6" fill="#2a2a3e"/>
        <path d="M 10,15 L 10,40 L 40,40 L 40,20 L 25,20 L 20,15 Z" fill="#f59e0b"/>
        <text x="25" y="47" font-size="8" text-anchor="middle" fill="#666">src</text>
        
        <!-- test folder -->
        <rect x="60" y="0" width="50" height="50" rx="6" fill="#2a2a3e"/>
        <path d="M 70,15 L 70,40 L 100,40 L 100,20 L 85,20 L 80,15 Z" fill="#ef4444"/>
        <text x="85" y="47" font-size="8" text-anchor="middle" fill="#666">test</text>
        
        <!-- components -->
        <rect x="120" y="0" width="50" height="50" rx="6" fill="#2a2a3e"/>
        <path d="M 130,15 L 130,40 L 160,40 L 160,20 L 145,20 L 140,15 Z" fill="#10b981"/>
        <text x="145" y="47" font-size="8" text-anchor="middle" fill="#666">comp</text>
        
        <!-- node_modules -->
        <rect x="180" y="0" width="50" height="50" rx="6" fill="#2a2a3e"/>
        <path d="M 190,15 L 190,40 L 220,40 L 220,20 L 205,20 L 200,15 Z" fill="#68a063"/>
        <text x="205" y="47" font-size="8" text-anchor="middle" fill="#666">modules</text>
        
        <!-- dist -->
        <rect x="240" y="0" width="50" height="50" rx="6" fill="#2a2a3e"/>
        <path d="M 250,15 L 250,40 L 280,40 L 280,20 L 265,20 L 260,15 Z" fill="#a855f7"/>
        <text x="265" y="47" font-size="8" text-anchor="middle" fill="#666">dist</text>
        
        <!-- docs -->
        <rect x="300" y="0" width="50" height="50" rx="6" fill="#2a2a3e"/>
        <path d="M 310,15 L 310,40 L 340,40 L 340,20 L 325,20 L 320,15 Z" fill="#3b82f6"/>
        <text x="325" y="47" font-size="8" text-anchor="middle" fill="#666">docs</text>
        
        <!-- api -->
        <rect x="360" y="0" width="50" height="50" rx="6" fill="#2a2a3e"/>
        <path d="M 370,15 L 370,40 L 400,40 L 400,20 L 385,20 L 380,15 Z" fill="#dc2626"/>
        <text x="385" y="47" font-size="8" text-anchor="middle" fill="#666">api</text>
        
        <!-- assets -->
        <rect x="420" y="0" width="50" height="50" rx="6" fill="#2a2a3e"/>
        <path d="M 430,15 L 430,40 L 460,40 L 460,20 L 445,20 L 440,15 Z" fill="#14b8a6"/>
        <text x="445" y="47" font-size="8" text-anchor="middle" fill="#666">assets</text>
        
        <!-- config -->
        <rect x="480" y="0" width="50" height="50" rx="6" fill="#2a2a3e"/>
        <path d="M 490,15 L 490,40 L 520,40 L 520,20 L 505,20 L 500,15 Z" fill="#6366f1"/>
        <text x="505" y="47" font-size="8" text-anchor="middle" fill="#666">config</text>
        
        <!-- utils -->
        <rect x="540" y="0" width="50" height="50" rx="6" fill="#2a2a3e"/>
        <path d="M 550,15 L 550,40 L 580,40 L 580,20 L 565,20 L 560,15 Z" fill="#84cc16"/>
        <text x="565" y="47" font-size="8" text-anchor="middle" fill="#666">utils</text>
        
        <!-- services -->
        <rect x="600" y="0" width="50" height="50" rx="6" fill="#2a2a3e"/>
        <path d="M 610,15 L 610,40 L 640,40 L 640,20 L 625,20 L 620,15 Z" fill="#ec4899"/>
        <text x="625" y="47" font-size="8" text-anchor="middle" fill="#666">service</text>
        
        <!-- public -->
        <rect x="660" y="0" width="50" height="50" rx="6" fill="#2a2a3e"/>
        <path d="M 670,15 L 670,40 L 700,40 L 700,20 L 685,20 L 680,15 Z" fill="#8b5cf6"/>
        <text x="685" y="47" font-size="8" text-anchor="middle" fill="#666">public</text>
        
        <!-- .github -->
        <rect x="720" y="0" width="50" height="50" rx="6" fill="#2a2a3e"/>
        <path d="M 730,15 L 730,40 L 760,40 L 760,20 L 745,20 L 740,15 Z" fill="#333"/>
        <text x="745" y="47" font-size="8" text-anchor="middle" fill="#666">.github</text>
        
        <!-- More -->
        <text x="780" y="30" font-size="16" fill="#667eea">+220 more</text>
      </g>
    </g>
    
    <!-- 更多图标网格展示 -->
    <g transform="translate(0, 400)">
      <text x="0" y="0" font-family="JetBrains Mono" font-size="14" fill="#64748b">AND MANY MORE...</text>
      <g transform="translate(0, 20)">
        <!-- 创建一个简单的图标网格 -->
        <rect x="0" y="0" width="1440" height="200" rx="10" fill="#1e1e2e" opacity="0.5"/>
        <!-- 小图标矩阵 -->
        <g transform="translate(20, 20)">
          <!-- 使用简单的彩色方块表示更多图标 -->
          <!-- 第一行 -->
          <rect x="0" y="0" width="25" height="25" rx="3" fill="#667eea" opacity="0.6"/>
          <rect x="30" y="0" width="25" height="25" rx="3" fill="#764ba2" opacity="0.6"/>
          <rect x="60" y="0" width="25" height="25" rx="3" fill="#f59e0b" opacity="0.6"/>
          <rect x="90" y="0" width="25" height="25" rx="3" fill="#10b981" opacity="0.6"/>
          <rect x="120" y="0" width="25" height="25" rx="3" fill="#ef4444" opacity="0.6"/>
          <rect x="150" y="0" width="25" height="25" rx="3" fill="#3b82f6" opacity="0.6"/>
          <rect x="180" y="0" width="25" height="25" rx="3" fill="#a855f7" opacity="0.6"/>
          <rect x="210" y="0" width="25" height="25" rx="3" fill="#ec4899" opacity="0.6"/>
          <rect x="240" y="0" width="25" height="25" rx="3" fill="#14b8a6" opacity="0.6"/>
          <rect x="270" y="0" width="25" height="25" rx="3" fill="#84cc16" opacity="0.6"/>
          
          <!-- 添加更多行表示大量图标 -->
          <text x="320" y="15" font-size="24" fill="#667eea">...</text>
          
          <!-- 底部统计 -->
          <text x="600" y="100" font-family="JetBrains Mono" font-size="48" font-weight="bold" text-anchor="middle" fill="#667eea">346</text>
          <text x="600" y="130" font-family="Arial" font-size="16" text-anchor="middle" fill="#a0a0a0">Total Icons</text>
        </g>
      </g>
    </g>
  </g>
  
  <!-- 底部信息 -->
  <g transform="translate(800, 850)">
    <text x="0" y="0" font-family="JetBrains Mono" font-size="14" text-anchor="middle" fill="#606060">
      github.com/yzxxy010/jetbrains-winsurf-icons
    </text>
  </g>
</svg>
