<svg width="1920" height="1080" viewBox="0 0 1920 1080" xmlns="http://www.w3.org/2000/svg">
  <!-- 背景 - 模拟IDEA暗色主题 -->
  <rect width="1920" height="1080" fill="#181825"/>
  
  <!-- 渐变定义 -->
  <defs>
    <linearGradient id="headerGrad" x1="0%" y1="0%" x2="100%" y2="100%">
      <stop offset="0%" style="stop-color:#667eea;stop-opacity:1" />
      <stop offset="100%" style="stop-color:#764ba2;stop-opacity:1" />
    </linearGradient>
    
    <filter id="shadow">
      <feDropShadow dx="0" dy="4" stdDeviation="8" flood-opacity="0.3"/>
    </filter>
    
    <pattern id="grid" x="0" y="0" width="100" height="100" patternUnits="userSpaceOnUse">
      <rect x="0" y="0" width="100" height="100" fill="none" stroke="#1e1e2e" stroke-width="0.5" opacity="0.5"/>
    </pattern>
  </defs>
  
  <!-- 网格背景 -->
  <rect width="1920" height="1080" fill="url(#grid)"/>
  
  <!-- 顶部渐变条 -->
  <rect x="0" y="0" width="1920" height="8" fill="url(#headerGrad)"/>
  
  <!-- 标题区域 -->
  <g transform="translate(960, 120)">
    <!-- 主标题 -->
    <text x="0" y="0" font-family="JetBrains Mono, Consolas, monospace" font-size="72" font-weight="bold" text-anchor="middle" fill="white">
      Winsurf Icon Theme
    </text>
    
    <!-- 副标题 -->
    <text x="0" y="50" font-family="Arial, sans-serif" font-size="28" text-anchor="middle" fill="#a0a0a0">
      Beautiful Icons for JetBrains IDEs
    </text>
    
    <!-- 中文副标题 -->
    <text x="0" y="90" font-family="Microsoft YaHei, Arial, sans-serif" font-size="24" text-anchor="middle" fill="#808080">
      为 JetBrains IDE 打造的精美图标主题
    </text>
  </g>
  
  <!-- 统计信息 -->
  <g transform="translate(960, 280)">
    <rect x="-400" y="-40" width="200" height="80" rx="10" fill="#1e1e2e" filter="url(#shadow)"/>
    <text x="-300" y="-5" font-family="JetBrains Mono" font-size="36" font-weight="bold" text-anchor="middle" fill="#60a5fa">346</text>
    <text x="-300" y="20" font-family="Arial" font-size="14" text-anchor="middle" fill="#a0a0a0">Total Icons</text>
    
    <rect x="-100" y="-40" width="200" height="80" rx="10" fill="#1e1e2e" filter="url(#shadow)"/>
    <text x="0" y="-5" font-family="JetBrains Mono" font-size="36" font-weight="bold" text-anchor="middle" fill="#f59e0b">207</text>
    <text x="0" y="20" font-family="Arial" font-size="14" text-anchor="middle" fill="#a0a0a0">File Types</text>
    
    <rect x="200" y="-40" width="200" height="80" rx="10" fill="#1e1e2e" filter="url(#shadow)"/>
    <text x="300" y="-5" font-family="JetBrains Mono" font-size="36" font-weight="bold" text-anchor="middle" fill="#10b981">234</text>
    <text x="300" y="20" font-family="Arial" font-size="14" text-anchor="middle" fill="#a0a0a0">Folder Maps</text>
  </g>
  
  <!-- 图标展示区域 -->
  <g transform="translate(150, 420)">
    <!-- 文件类型标题 -->
    <text x="0" y="0" font-family="JetBrains Mono" font-size="24" font-weight="bold" fill="#60a5fa">Programming Languages</text>
    
    <!-- 编程语言图标展示区 -->
    <g transform="translate(0, 40)">
      <!-- 背景卡片 -->
      <rect x="0" y="0" width="1620" height="120" rx="15" fill="#1e1e2e" opacity="0.8"/>
      
      <!-- 图标占位符 - 这里展示主要编程语言 -->
      <g transform="translate(40, 30)">
        <!-- JavaScript -->
        <rect x="0" y="0" width="60" height="60" rx="8" fill="#2a2a3e"/>
        <text x="30" y="40" font-family="JetBrains Mono" font-size="24" text-anchor="middle" fill="#f7df1e">JS</text>
        
        <!-- TypeScript -->
        <rect x="100" y="0" width="60" height="60" rx="8" fill="#2a2a3e"/>
        <text x="130" y="40" font-family="JetBrains Mono" font-size="24" text-anchor="middle" fill="#3178c6">TS</text>
        
        <!-- Python -->
        <rect x="200" y="0" width="60" height="60" rx="8" fill="#2a2a3e"/>
        <text x="230" y="40" font-family="JetBrains Mono" font-size="24" text-anchor="middle" fill="#3776ab">PY</text>
        
        <!-- Java -->
        <rect x="300" y="0" width="60" height="60" rx="8" fill="#2a2a3e"/>
        <text x="330" y="40" font-family="JetBrains Mono" font-size="18" text-anchor="middle" fill="#f89820">JAVA</text>
        
        <!-- Go -->
        <rect x="400" y="0" width="60" height="60" rx="8" fill="#2a2a3e"/>
        <text x="430" y="40" font-family="JetBrains Mono" font-size="24" text-anchor="middle" fill="#00add8">GO</text>
        
        <!-- Rust -->
        <rect x="500" y="0" width="60" height="60" rx="8" fill="#2a2a3e"/>
        <text x="530" y="40" font-family="JetBrains Mono" font-size="24" text-anchor="middle" fill="#ce422b">RS</text>
        
        <!-- C++ -->
        <rect x="600" y="0" width="60" height="60" rx="8" fill="#2a2a3e"/>
        <text x="630" y="40" font-family="JetBrains Mono" font-size="20" text-anchor="middle" fill="#00599c">C++</text>
        
        <!-- C# -->
        <rect x="700" y="0" width="60" height="60" rx="8" fill="#2a2a3e"/>
        <text x="730" y="40" font-family="JetBrains Mono" font-size="24" text-anchor="middle" fill="#239120">C#</text>
        
        <!-- Ruby -->
        <rect x="800" y="0" width="60" height="60" rx="8" fill="#2a2a3e"/>
        <text x="830" y="40" font-family="JetBrains Mono" font-size="24" text-anchor="middle" fill="#cc342d">RB</text>
        
        <!-- PHP -->
        <rect x="900" y="0" width="60" height="60" rx="8" fill="#2a2a3e"/>
        <text x="930" y="40" font-family="JetBrains Mono" font-size="20" text-anchor="middle" fill="#777bb4">PHP</text>
        
        <!-- Swift -->
        <rect x="1000" y="0" width="60" height="60" rx="8" fill="#2a2a3e"/>
        <text x="1030" y="40" font-family="JetBrains Mono" font-size="18" text-anchor="middle" fill="#fa7343">Swift</text>
        
        <!-- Kotlin -->
        <rect x="1100" y="0" width="60" height="60" rx="8" fill="#2a2a3e"/>
        <text x="1130" y="40" font-family="JetBrains Mono" font-size="24" text-anchor="middle" fill="#7f52ff">KT</text>
        
        <!-- More -->
        <rect x="1200" y="0" width="60" height="60" rx="8" fill="#2a2a3e"/>
        <text x="1230" y="40" font-family="JetBrains Mono" font-size="24" text-anchor="middle" fill="#667eea">+40</text>
      </g>
    </g>
  </g>
  
  <!-- Web框架展示区 -->
  <g transform="translate(150, 620)">
    <text x="0" y="0" font-family="JetBrains Mono" font-size="24" font-weight="bold" fill="#f59e0b">Web Frameworks</text>
    
    <g transform="translate(0, 40)">
      <rect x="0" y="0" width="1620" height="120" rx="15" fill="#1e1e2e" opacity="0.8"/>
      
      <g transform="translate(40, 30)">
        <!-- React -->
        <rect x="0" y="0" width="60" height="60" rx="8" fill="#2a2a3e"/>
        <text x="30" y="40" font-family="Arial" font-size="32" text-anchor="middle" fill="#61dafb">⚛</text>
        
        <!-- Vue -->
        <rect x="100" y="0" width="60" height="60" rx="8" fill="#2a2a3e"/>
        <text x="130" y="40" font-family="JetBrains Mono" font-size="24" text-anchor="middle" fill="#4fc08d">Vue</text>
        
        <!-- Angular -->
        <rect x="200" y="0" width="60" height="60" rx="8" fill="#2a2a3e"/>
        <text x="230" y="40" font-family="JetBrains Mono" font-size="24" text-anchor="middle" fill="#dd0031">NG</text>
        
        <!-- Svelte -->
        <rect x="300" y="0" width="60" height="60" rx="8" fill="#2a2a3e"/>
        <text x="330" y="40" font-family="JetBrains Mono" font-size="20" text-anchor="middle" fill="#ff3e00">SV</text>
        
        <!-- Next.js -->
        <rect x="400" y="0" width="60" height="60" rx="8" fill="#2a2a3e"/>
        <text x="430" y="40" font-family="JetBrains Mono" font-size="18" text-anchor="middle" fill="#ffffff">Next</text>
        
        <!-- Nuxt -->
        <rect x="500" y="0" width="60" height="60" rx="8" fill="#2a2a3e"/>
        <text x="530" y="40" font-family="JetBrains Mono" font-size="18" text-anchor="middle" fill="#00dc82">Nuxt</text>
        
        <!-- Astro -->
        <rect x="600" y="0" width="60" height="60" rx="8" fill="#2a2a3e"/>
        <text x="630" y="40" font-family="JetBrains Mono" font-size="18" text-anchor="middle" fill="#ff5d01">Astro</text>
        
        <!-- Vite -->
        <rect x="700" y="0" width="60" height="60" rx="8" fill="#2a2a3e"/>
        <text x="730" y="40" font-family="JetBrains Mono" font-size="20" text-anchor="middle" fill="#646cff">Vite</text>
        
        <!-- Webpack -->
        <rect x="800" y="0" width="60" height="60" rx="8" fill="#2a2a3e"/>
        <text x="830" y="40" font-family="JetBrains Mono" font-size="16" text-anchor="middle" fill="#8dd6f9">WP</text>
        
        <!-- And more -->
        <text x="930" y="40" font-family="Arial" font-size="18" text-anchor="middle" fill="#a0a0a0">and many more...</text>
      </g>
    </g>
  </g>
  
  <!-- 文件夹图标展示 -->
  <g transform="translate(150, 820)">
    <text x="0" y="0" font-family="JetBrains Mono" font-size="24" font-weight="bold" fill="#10b981">Smart Folder Recognition</text>
    
    <g transform="translate(0, 40)">
      <rect x="0" y="0" width="1620" height="120" rx="15" fill="#1e1e2e" opacity="0.8"/>
      
      <g transform="translate(40, 30)">
        <!-- src folder -->
        <g transform="translate(0, 0)">
          <rect x="0" y="0" width="60" height="60" rx="8" fill="#2a2a3e"/>
          <text x="30" y="40" font-family="Arial" font-size="28" text-anchor="middle" fill="#f59e0b">📁</text>
          <text x="30" y="80" font-family="Arial" font-size="12" text-anchor="middle" fill="#a0a0a0">src</text>
        </g>
        
        <!-- test folder -->
        <g transform="translate(100, 0)">
          <rect x="0" y="0" width="60" height="60" rx="8" fill="#2a2a3e"/>
          <text x="30" y="40" font-family="Arial" font-size="28" text-anchor="middle" fill="#10b981">📁</text>
          <text x="30" y="80" font-family="Arial" font-size="12" text-anchor="middle" fill="#a0a0a0">test</text>
        </g>
        
        <!-- node_modules -->
        <g transform="translate(200, 0)">
          <rect x="0" y="0" width="60" height="60" rx="8" fill="#2a2a3e"/>
          <text x="30" y="40" font-family="Arial" font-size="28" text-anchor="middle" fill="#68a063">📦</text>
          <text x="30" y="80" font-family="Arial" font-size="10" text-anchor="middle" fill="#a0a0a0">modules</text>
        </g>
        
        <!-- build -->
        <g transform="translate(300, 0)">
          <rect x="0" y="0" width="60" height="60" rx="8" fill="#2a2a3e"/>
          <text x="30" y="40" font-family="Arial" font-size="28" text-anchor="middle" fill="#fbbf24">📁</text>
          <text x="30" y="80" font-family="Arial" font-size="12" text-anchor="middle" fill="#a0a0a0">build</text>
        </g>
        
        <!-- docs -->
        <g transform="translate(400, 0)">
          <rect x="0" y="0" width="60" height="60" rx="8" fill="#2a2a3e"/>
          <text x="30" y="40" font-family="Arial" font-size="28" text-anchor="middle" fill="#60a5fa">📚</text>
          <text x="30" y="80" font-family="Arial" font-size="12" text-anchor="middle" fill="#a0a0a0">docs</text>
        </g>
        
        <!-- And more text -->
        <text x="530" y="40" font-family="JetBrains Mono" font-size="16" text-anchor="middle" fill="#667eea">234+ folder mappings</text>
      </g>
    </g>
  </g>
  
  <!-- 底部行动呼吁 -->
  <g transform="translate(960, 1000)">
    <rect x="-200" y="-35" width="400" height="70" rx="35" fill="url(#headerGrad)" filter="url(#shadow)"/>
    <text x="0" y="8" font-family="JetBrains Mono" font-size="24" font-weight="bold" text-anchor="middle" fill="white">
      Download Now
    </text>
  </g>
  
  <!-- GitHub链接 -->
  <text x="960" y="1050" font-family="JetBrains Mono" font-size="16" text-anchor="middle" fill="#808080">
    github.com/yzxxy010/jetbrains-winsurf-icons
  </text>
</svg>
