<svg width="96" height="20" fill="none" xmlns="http://www.w3.org/2000/svg"><g opacity=".8" clip-path="url(#a)"><path d="M0 .5h19.274v19H0V.5ZM53.902 4.26c.165 0 .207.202.207.364.04.646.082 1.253.082 1.9.041.606.041 1.212.041 1.819.372-.283.702-.566 1.115-.687a2.55 2.55 0 0 1 2.105.04c.701.364 1.155 1.01 1.403 1.698.206.687.289 1.415.248 2.102-.083.849-.29 1.657-.785 2.345-.288.404-.66.727-1.155.889-.784.283-1.61.162-2.311-.243-.207-.12-.413-.323-.578-.485-.083.243-.124.485-.207.728-.371 0-.701.04-1.073-.04.124-.566.124-1.173.165-1.739.042-2.061 0-4.123 0-6.144-.04-.809 0-1.617-.123-2.386.247-.08.577-.161.866-.161Zm2.724 4.244c-.33-.08-.66-.08-.949-.04-.578.08-1.032.485-1.403.89v3.678c0 .121.082.202.165.243.578.525 1.403.768 2.146.606.371-.08.702-.323.867-.647.289-.444.371-.97.412-1.495.042-.405.083-.809.042-1.173 0-.445-.124-.93-.372-1.334-.206-.404-.536-.647-.908-.728Zm4.747-3.961c.206-.081.495-.081.701.04.207.121.372.324.454.526.124.485-.247 1.01-.743 1.05-.371.041-.784-.16-.908-.565-.165-.364.083-.89.496-1.051Zm-34.133.849c.537-.364 1.197-.647 1.857-.647.702 0 1.404.04 2.023.323.247.122.495.243.743.405-.165.283-.372.485-.578.727-.248-.121-.495-.283-.784-.404-.66-.243-1.445-.283-2.105 0-.578.202-1.032.647-1.32 1.172-.166.405-.331.809-.414 1.213-.082.404-.082.809-.123 1.213 0 .525-.042 1.091 0 1.617.082.768.371 1.496.866 2.062.454.525 1.115.808 1.816.889.372 0 .702 0 1.073-.081.413-.08.784-.323 1.197-.485.207.202.413.485.62.728a6.267 6.267 0 0 1-.909.444c-.825.324-1.774.364-2.641.243-.66-.121-1.238-.445-1.734-.85-.577-.484-.99-1.131-1.238-1.818a6.06 6.06 0 0 1-.289-1.456c0-.363-.082-.727 0-1.131 0-.688.124-1.415.413-2.062.289-.809.784-1.577 1.527-2.102Z" fill="#FF5A00"/><path d="M5.695 5.23c.083 0 .165-.04.248-.04.413 0 .825 0 1.238.04.083 0 .083.04.124.08.619 1.254 1.238 2.547 1.898 3.841.124.283.248.526.413.768.124-.202.248-.404.372-.647.701-1.374 1.403-2.708 2.105-4.083.454 0 .908-.04 1.403.04-.083.284-.248.486-.372.728-.908 1.739-1.857 3.477-2.806 5.215-.041.081-.041.122-.041.202v3.72H8.915v-3.639c0-.121 0-.283-.083-.404-.867-1.577-1.692-3.153-2.559-4.77a28.68 28.68 0 0 0-.578-1.051Z" fill="#FFFEFE"/><path d="M80.15 5.796a9.623 9.623 0 0 1 1.156-.283 17.457 17.457 0 0 0-.123 2.102c.577 0 1.197 0 1.774.04-.082.283-.206.526-.33.768H81.1v1.94c0 .486.041 1.011 0 1.537 0 .566 0 1.172.041 1.738 0 .243.248.405.454.485.372.081.743.04 1.115-.04.082.202.124.445.124.647-.33.161-.702.202-1.074.242-.495 0-1.073-.08-1.444-.444-.289-.283-.289-.728-.33-1.092-.041-.808 0-1.657-.041-2.466V8.464h-.95v-.809h.95c.123-.647.123-1.293.206-1.86ZM36.403 7.413c.289 0 .62 0 .908.08.66.203 1.238.688 1.568 1.254.29.525.496 1.091.537 1.698.041.808.082 1.617-.206 2.385-.248.727-.743 1.374-1.445 1.738-.702.364-1.527.404-2.27.202-.66-.162-1.238-.606-1.65-1.172-.414-.607-.579-1.334-.579-2.102 0-.688-.041-1.415.207-2.102a3.165 3.165 0 0 1 1.28-1.658c.288-.162.577-.323.907-.364.248.04.495.04.743.04Zm-.578.93c-.371.08-.743.323-.95.646-.288.485-.37 1.051-.37 1.617-.042.405 0 .809.04 1.213.083.485.166 1.01.413 1.455.248.486.785.688 1.321.728.495.04 1.032-.08 1.403-.485a1.9 1.9 0 0 0 .496-1.132 6.431 6.431 0 0 0 .041-1.536c0-.526-.083-1.092-.289-1.617a1.437 1.437 0 0 0-.66-.728c-.454-.242-.95-.283-1.445-.162Zm5.613-.688c.33-.121.66-.202 1.032-.242.124.323.206.646.248 1.01.247-.12.412-.323.66-.444a2.956 2.956 0 0 1 1.733-.566c.124 0 .29.04.413.121.207.121.413.202.62.364.164.162.288.404.412.606.289-.121.495-.364.743-.525.413-.283.908-.526 1.486-.566.495-.04.99.121 1.362.444.165.162.33.324.413.526.082.202.123.404.123.647.083 1.132.042 2.304.083 3.436v2.304h-1.156v-3.436c0-.728 0-1.455-.041-2.223a.955.955 0 0 0-.371-.607c-.207-.121-.496-.121-.785-.121-.454.04-.825.323-1.197.606-.165.122-.33.283-.495.405-.041.04-.041.12-.041.161v5.175h-1.156V9.717c0-.323 0-.687-.124-.97-.247-.324-.701-.405-1.073-.283-.578.121-1.073.485-1.527.89-.082.04-.082.12-.082.201v5.215h-.99c-.042-1.779 0-3.557-.083-5.336 0-.404 0-.809-.083-1.213-.041-.202-.124-.404-.124-.566Zm19.687-.04c.372-.04.743-.121 1.115-.202.04 1.01.04 2.021.04 2.991v4.326h-1.155V8.545c0-.283-.041-.647 0-.93Zm14.817-.162c.784.121 1.445.85 1.486 1.658.041 1.172 0 2.385 0 3.557v.364c0 .242 0 .485.082.687.042.243.29.364.454.485-.165.202-.288.485-.495.647-.124.121-.289 0-.371-.08-.29-.203-.454-.486-.62-.81-.247.122-.412.364-.701.486-.413.283-.908.404-1.444.404-.454 0-.908-.08-1.321-.283a1.958 1.958 0 0 1-.99-1.82c0-.686.37-1.374.907-1.778.66-.485 1.527-.647 2.353-.728.371-.04.743-.04 1.155-.04 0-.364 0-.728-.082-1.091-.041-.283-.207-.607-.495-.769a1.751 1.751 0 0 0-1.115-.12c-.701.08-1.362.363-1.94.767-.165-.202-.33-.404-.454-.647-.082-.12.042-.202.124-.242.784-.404 1.61-.768 2.518-.768h.371c.207.08.372.08.578.121Zm-.495 3.598c-.372.04-.702.04-1.073.121a1.866 1.866 0 0 0-1.032.728c-.124.202-.124.445-.124.687 0 .243-.041.526.083.768.082.243.289.485.536.566.29.122.62.122.95.122.37-.04.701-.243.99-.486.248-.202.495-.444.495-.768.042-.566.042-1.172.042-1.738-.29.04-.578-.04-.867 0Zm12.547-3.557c.66.161 1.238.566 1.65 1.091.33.445.537.93.62 1.455.082.486.123 1.011.082 1.537 0 .848-.289 1.657-.784 2.304-.413.525-1.073.849-1.692.97-.784.121-1.651 0-2.353-.485-.578-.404-.949-1.051-1.155-1.738-.124-.364-.124-.688-.165-1.052 0-.606 0-1.172.082-1.778.165-.647.495-1.294.99-1.779.372-.364.867-.566 1.363-.647.495 0 .949.04 1.362.122Zm-1.239.848c-.536.081-.99.486-1.155.97-.207.526-.207 1.092-.207 1.618 0 .525 0 1.05.124 1.536.083.364.165.687.413.97.206.283.578.445.908.485.124.04.289.04.413.04h.247c.29-.04.537-.12.785-.242.288-.162.495-.445.619-.768.124-.364.165-.768.206-1.132 0-.445.041-.89 0-1.374-.041-.486-.082-.97-.33-1.375a1.9 1.9 0 0 0-.867-.728 2.784 2.784 0 0 0-1.156 0Zm5.572-.646c.372-.081.702-.202 1.032-.283.206.364.206.768.248 1.132A4.9 4.9 0 0 0 94.1 8.1c.495-.485 1.238-.768 1.94-.647v.081c-.165.323-.248.687-.413 1.051 0 .08-.124.04-.165.04-.289 0-.66 0-.908.162-.289.162-.495.364-.702.607-.206.242-.165.566-.165.848 0 .405-.041.809 0 1.213v3.315h-1.155v-3.679c0-.848 0-1.657-.042-2.506-.04-.323-.123-.606-.165-.89Zm-27.817 0c.33-.122.701-.243 1.031-.243.124.324.207.687.248 1.01.289-.201.578-.444.867-.606.619-.363 1.362-.606 2.022-.363.413.12.784.363 1.032.727.206.243.248.607.289.89.082 1.131.041 2.223.041 3.355v2.223h-1.156c0-1.213-.04-2.466-.04-3.678 0-.688 0-1.375-.083-2.062-.124-.324-.413-.607-.785-.607-.247 0-.536 0-.784.081-.536.202-1.032.526-1.486.89v5.376h-.99c0-1.01-.041-2.021-.041-3.072 0-1.051 0-2.102-.083-3.153.083-.202 0-.485-.082-.768Z" fill="#FF5A00"/></g><defs><clipPath id="a"><path fill="#fff" transform="translate(0 .5)" d="M0 0h96v19H0z"/></clipPath></defs></svg>